<svg width="1568" height="454" viewBox="0 0 1568 454" fill="none" xmlns="http://www.w3.org/2000/svg">
<g filter="url(#filter0_d_237_234)">
<path d="M9.00105 65.4128C8.8828 65.4128 18.7245 55.6876 37.9234 38.0287C54.4256 22.8501 71.0632 15.383 85.1558 10.2948C99.5619 5.09357 115.629 4.81458 128.798 5.06162C149.793 5.45548 173.271 23.9968 181.517 32.057C185.004 35.4652 190.233 41.3682 205.037 63.9722C219.841 86.5762 243.9 125.86 266.504 166.352C289.108 206.843 309.529 247.35 331.319 282.796C353.11 318.241 375.651 347.396 389.431 364.365C403.21 381.333 407.545 385.231 419.909 393.276C432.273 401.32 452.535 413.392 467.69 421.137C482.846 428.882 492.282 431.934 505.111 434.446C533.666 440.038 555.417 440.775 563.999 440.501C582.748 439.905 606.564 410.563 617.786 392.442C624.628 378.584 629.225 369.185 630.845 366.207C631.669 364.628 632.499 362.911 633.41 358.597" stroke="#D5D5D5" stroke-width="10" stroke-linecap="round"/>
</g>
<g filter="url(#filter1_d_237_234)">
<path d="M633.41 358.597C633.512 354.609 634.117 344.783 641.457 323.548C648.06 304.447 661.877 268.931 669.179 249.835C677.064 229.21 684.304 214.813 703.71 181.316C715.917 160.243 736.263 132.929 754.102 109.684C771.941 86.4385 787.512 68.6088 801.28 54.7784C825.442 30.5081 840.795 20.6879 845.504 18.1488C859.559 10.5693 894.517 10.6586 920.517 13.2347C928.323 14.0082 946.798 21.4538 973.5 31.5996C990.819 38.18 1004.65 46.6515 1030.63 68.7021C1049.64 84.8287 1076.71 115.15 1097.98 138.629C1119.24 162.109 1132.92 178.894 1147.87 194.329C1162.83 209.763 1178.65 223.338 1195.44 238.763" stroke="#D5D5D5" stroke-width="10" stroke-linecap="round"/>
</g>
<g filter="url(#filter2_d_237_234)">
<path d="M1195.44 238.763C1203.85 242.791 1229.8 254.192 1268.63 261.364C1294.33 266.109 1333.11 267.013 1372.83 264.84C1412.54 262.668 1452.26 255.836 1483.19 248.98C1514.12 242.124 1535.07 235.45 1558.08 228.186" stroke="#D5D5D5" stroke-width="10" stroke-linecap="round"/>
</g>
<defs>
<filter id="filter0_d_237_234" x="0" y="0" width="642.411" height="453.55" filterUnits="userSpaceOnUse" color-interpolation-filters="sRGB">
<feFlood flood-opacity="0" result="BackgroundImageFix"/>
<feColorMatrix in="SourceAlpha" type="matrix" values="0 0 0 0 0 0 0 0 0 0 0 0 0 0 0 0 0 0 127 0" result="hardAlpha"/>
<feOffset dy="4"/>
<feGaussianBlur stdDeviation="2"/>
<feComposite in2="hardAlpha" operator="out"/>
<feColorMatrix type="matrix" values="0 0 0 0 0 0 0 0 0 0 0 0 0 0 0 0 0 0 0.25 0"/>
<feBlend mode="normal" in2="BackgroundImageFix" result="effect1_dropShadow_237_234"/>
<feBlend mode="normal" in="SourceGraphic" in2="effect1_dropShadow_237_234" result="shape"/>
</filter>
<filter id="filter1_d_237_234" x="624.41" y="6.65894" width="580.026" height="364.938" filterUnits="userSpaceOnUse" color-interpolation-filters="sRGB">
<feFlood flood-opacity="0" result="BackgroundImageFix"/>
<feColorMatrix in="SourceAlpha" type="matrix" values="0 0 0 0 0 0 0 0 0 0 0 0 0 0 0 0 0 0 127 0" result="hardAlpha"/>
<feOffset dy="4"/>
<feGaussianBlur stdDeviation="2"/>
<feComposite in2="hardAlpha" operator="out"/>
<feColorMatrix type="matrix" values="0 0 0 0 0 0 0 0 0 0 0 0 0 0 0 0 0 0 0.25 0"/>
<feBlend mode="normal" in2="BackgroundImageFix" result="effect1_dropShadow_237_234"/>
<feBlend mode="normal" in="SourceGraphic" in2="effect1_dropShadow_237_234" result="shape"/>
</filter>
<filter id="filter2_d_237_234" x="1186.44" y="223.185" width="380.649" height="55.775" filterUnits="userSpaceOnUse" color-interpolation-filters="sRGB">
<feFlood flood-opacity="0" result="BackgroundImageFix"/>
<feColorMatrix in="SourceAlpha" type="matrix" values="0 0 0 0 0 0 0 0 0 0 0 0 0 0 0 0 0 0 127 0" result="hardAlpha"/>
<feOffset dy="4"/>
<feGaussianBlur stdDeviation="2"/>
<feComposite in2="hardAlpha" operator="out"/>
<feColorMatrix type="matrix" values="0 0 0 0 0 0 0 0 0 0 0 0 0 0 0 0 0 0 0.25 0"/>
<feBlend mode="normal" in2="BackgroundImageFix" result="effect1_dropShadow_237_234"/>
<feBlend mode="normal" in="SourceGraphic" in2="effect1_dropShadow_237_234" result="shape"/>
</filter>
</defs>
</svg>
